<svg id="Gruppe_3_Kopie_9" data-name="Gruppe 3 Kopie 9" xmlns="http://www.w3.org/2000/svg" width="1000" height="254" viewBox="0 0 1000 254">
  <defs>
    <style>
      .cls-1 {
        fill: #00cc65;
      }

      .cls-1, .cls-2 {
        fill-rule: evenodd;
      }

      .cls-2 {
        stroke: #000;
        stroke-width: 1px;
      }
    </style>
  </defs>
  <path id="Ellipse_1_Kopie" data-name="Ellipse 1 Kopie" class="cls-1" d="M81.047,0.795a78.433,78.433,0,1,1-78.7,78.431A78.568,78.568,0,0,1,81.047.795ZM80.768,30.833A48.116,48.116,0,1,1,32.486,78.949,48.2,48.2,0,0,1,80.768,30.833Zm0.279,220.835s55.26-62.859,67.54-119.04c-0.241.281-24.073,33.932-67.54,33.932s-67.5-33.542-67.54-33.932C24.671,188.809,81.047,251.668,81.047,251.668Z"/>
  <path id="V_Kopie" data-name="V Kopie" class="cls-1" d="M63.738,54.525Q62.432,52.6,59.282,52.6a5.718,5.718,0,0,0-4.27,1.74,5.4,5.4,0,0,0-1.7,3.854,9.519,9.519,0,0,0,.27,2.03,16.246,16.246,0,0,0,.663,2.237q0.393,1.036.767,2.113l14.467,39.364q0.787,2.279,1.575,4.309a18.9,18.9,0,0,0,1.845,3.626,8.008,8.008,0,0,0,2.777,2.569,8.436,8.436,0,0,0,4.207.973,8.283,8.283,0,0,0,4.207-.994,8.165,8.165,0,0,0,2.757-2.548,18.355,18.355,0,0,0,1.824-3.605q0.787-2.052,1.575-4.33l14.716-39.7q0.372-1.077.746-2.092a17.84,17.84,0,0,0,.621-2.072,8.611,8.611,0,0,0,.249-1.968,5.151,5.151,0,0,0-.767-2.631,5.8,5.8,0,0,0-2.114-2.093,5.694,5.694,0,0,0-2.922-.787,5.223,5.223,0,0,0-3.4,1.015,5.988,5.988,0,0,0-1.782,2.279q-0.539,1.264-1.617,4.5l-13.8,41.021L66.411,60.678A25.635,25.635,0,0,0,63.738,54.525Z"/>
  <path id="VayaPin_Kopie" data-name="VayaPin Kopie" class="cls-2" d="M225.806,246.342h48.9l35.5-234.367H276.382l-24.116,181.8H251.6l-24.115-181.8H190.3Zm83.075,0h34.164l6.7-45.869h41.867V199.8l6.7,46.539h36.843L396.97,11.975H347.064ZM354.1,168.666L370.175,52.822h0.67l16.412,115.844H354.1ZM471.34,246.342h36.843V146.569L552.73,11.975H516.891l-25.12,86.046H491.1l-25.12-86.046H426.793L471.34,146.569v99.773Zm73.033,0h34.163l6.7-45.869H627.1V199.8l6.7,46.539h36.844L632.462,11.975H582.556Zm45.216-77.676L605.666,52.822h0.67l16.412,115.844H589.589Zm98.819,77.676h36.843V150.921h17.417c36.843,0,54.93-20.423,54.93-57.922V69.9c0-37.5-18.087-57.922-54.93-57.922h-54.26V246.342Zm36.843-128.9V45.456h17.417c11.723,0,18.086,5.357,18.086,22.1V95.343c0,16.74-6.363,22.1-18.086,22.1H725.251Zm92.454,128.9h36.843V11.975H817.705V246.342Zm64.311,0H914.84V75.254h0.67l44.212,171.088H997.57V11.975H964.746V152.26h-0.67L928.238,11.975H882.016V246.342Z"/>
</svg>
